# xmcd
#
# Track frame offsets: 
#        150
#        19725
#        36960
#        65872
#        87402
#        105455
#        119292
#        133825
#        149642
#        172390
#        187325
#        209825
#        226930
#        243225
#        257850
#        273762
#        291645
#        313997
#
# Disc length: 4677 seconds
#
# Revision: 4
# Processed by: cddbd v1.5.2PL0 Copyright (c) Steve Scherf et al.
# Submitted via: ExactAudioCopy v1.1
#
DISCID=2f124312
DTITLE=Various Artist - More Sounds Of The New West (Uncut Magazine)
DYEAR=2000
DGENRE=Country
TTITLE0=The Waco Brothers - Make Things Happen
TTITLE1=The Flying Burrito Brothers - Dark End Of The Street
TTITLE2=The Guthries - Season To Leave
TTITLE3=Emmylou Harris - I Don't Want To Talk About It Now
TTITLE4=Lou Ford - How Does It Feel?
TTITLE5=Slaid Cleaves - Horsehoe Lounge
TTITLE6=Shelby Lynne - Leavin'
TTITLE7=Calexico - The Ballad Of Cable Hogue
TTITLE8=Bill Mallonee And The Vigilantes Of Love - Resplendent
TTITLE9=The Mayflies USA - Getting To The End Of You
TTITLE10=Merle Haggard - If I Could Only Fly
TTITLE11=The Hansome Family - So Much Wine
TTITLE12=Caitlin Cary - Rosemary Moore
TTITLE13=Willard Grant Conspiracy - Christmas In Nevada
TTITLE14=Giant Sand - Raw
TTITLE15=Allison Moorer - Think It Over
TTITLE16=Ryan Adams (Feat. Emmylou Harris) - Oh My Sweet Carolina
TTITLE17=Lambchop - The Butcher Boy (Live)
EXTD=plexi
EXTT0=
EXTT1=
EXTT2=
EXTT3=
EXTT4=
EXTT5=
EXTT6=
EXTT7=
EXTT8=
EXTT9=
EXTT10=
EXTT11=
EXTT12=
EXTT13=
EXTT14=
EXTT15=
EXTT16=
EXTT17=
PLAYORDER=
